<mxfile host="app.diagrams.net" modified="2023-05-01T01:29:47.598Z" agent="Mozilla/5.0 (Macintosh; Intel Mac OS X 10_15_7) AppleWebKit/537.36 (KHTML, like Gecko) Chrome/112.0.0.0 Safari/537.36" version="21.2.1" etag="fVCPVnFsBmsOZHwQv39E" type="github">
  <diagram name="第 1 页" id="GKxbGSpN6mo_iOeKzQlX">
    <mxGraphModel>
      <root>
        <mxCell id="0" />
        <mxCell id="1" parent="0" />
      </root>
    </mxGraphModel>
  </diagram>
</mxfile>
